<svg xmlns="http://www.w3.org/2000/svg" viewBox="0 0 100 100" role="img" aria-label="A-Star Lab">
<defs>
<linearGradient id="ag" x1="30" y1="82" x2="78" y2="14" gradientUnits="userSpaceOnUse"><stop offset="0" stop-color="#25e6ff"/><stop offset="0.55" stop-color="#00b6ff"/><stop offset="1" stop-color="#2f86ff"/></linearGradient>
</defs>
<rect x="0" y="0" width="100" height="100" rx="15" fill="#0a1526"/>
<circle cx="50.0" cy="47.0" r="33.0" fill="none" stroke="#7fd4ff" stroke-opacity="0.28" stroke-width="2"/>
<path d="M50.0 14.0 A33.0 33.0 0 0 1 50.0 80.0" fill="none" stroke="url(#ag)" stroke-width="3" stroke-linecap="round"/>
<g fill="none" stroke="url(#ag)" stroke-linecap="round" stroke-linejoin="round">
  <line x1="56.0" y1="78.0" x2="55.2" y2="74.1" stroke-width="2.6"/>
  <line x1="55.2" y1="74.1" x2="54.3" y2="70.2" stroke-width="2.6"/>
  <line x1="54.3" y1="70.2" x2="53.4" y2="66.3" stroke-width="2.6"/>
  <line x1="53.4" y1="66.3" x2="52.6" y2="62.4" stroke-width="2.6"/>
  <line x1="52.6" y1="62.4" x2="51.7" y2="58.5" stroke-width="2.6"/>
  <line x1="51.7" y1="58.5" x2="50.2" y2="56.4" stroke-width="1.9"/>
  <line x1="50.2" y1="56.4" x2="48.9" y2="54.3" stroke-width="1.9"/>
  <line x1="48.9" y1="54.3" x2="47.6" y2="52.1" stroke-width="1.9"/>
  <line x1="47.6" y1="52.1" x2="46.5" y2="49.9" stroke-width="1.9"/>
  <line x1="46.5" y1="49.9" x2="45.4" y2="47.6" stroke-width="1.9"/>
  <line x1="45.4" y1="47.6" x2="44.0" y2="46.8" stroke-width="1.3"/>
  <line x1="44.0" y1="46.8" x2="42.7" y2="46.0" stroke-width="1.3"/>
  <line x1="42.7" y1="46.0" x2="41.3" y2="45.1" stroke-width="1.3"/>
  <line x1="41.3" y1="45.1" x2="40.0" y2="44.2" stroke-width="1.3"/>
  <line x1="40.0" y1="44.2" x2="38.7" y2="43.3" stroke-width="1.3"/>
  <line x1="38.7" y1="43.3" x2="37.6" y2="43.2" stroke-width="1.0"/>
  <line x1="37.6" y1="43.2" x2="36.6" y2="43.2" stroke-width="1.0"/>
  <line x1="36.6" y1="43.2" x2="35.5" y2="43.1" stroke-width="1.0"/>
  <line x1="35.5" y1="43.1" x2="34.4" y2="43.1" stroke-width="1.0"/>
  <line x1="34.4" y1="43.1" x2="33.3" y2="43.1" stroke-width="1.0"/>
  <line x1="38.7" y1="43.3" x2="38.0" y2="42.6" stroke-width="1.0"/>
  <line x1="38.0" y1="42.6" x2="37.3" y2="41.9" stroke-width="1.0"/>
  <line x1="37.3" y1="41.9" x2="36.6" y2="41.2" stroke-width="1.0"/>
  <line x1="36.6" y1="41.2" x2="35.9" y2="40.5" stroke-width="1.0"/>
  <line x1="35.9" y1="40.5" x2="35.2" y2="39.8" stroke-width="1.0"/>
  <line x1="45.4" y1="47.6" x2="44.8" y2="45.8" stroke-width="1.3"/>
  <line x1="44.8" y1="45.8" x2="44.2" y2="44.1" stroke-width="1.3"/>
  <line x1="44.2" y1="44.1" x2="43.5" y2="42.3" stroke-width="1.3"/>
  <line x1="43.5" y1="42.3" x2="42.8" y2="40.5" stroke-width="1.3"/>
  <line x1="42.8" y1="40.5" x2="42.1" y2="38.8" stroke-width="1.3"/>
  <line x1="42.1" y1="38.8" x2="41.3" y2="37.7" stroke-width="1.0"/>
  <line x1="41.3" y1="37.7" x2="40.5" y2="36.6" stroke-width="1.0"/>
  <line x1="40.5" y1="36.6" x2="39.8" y2="35.4" stroke-width="1.0"/>
  <line x1="39.8" y1="35.4" x2="39.2" y2="34.2" stroke-width="1.0"/>
  <line x1="39.2" y1="34.2" x2="38.6" y2="33.0" stroke-width="1.0"/>
  <line x1="42.1" y1="38.8" x2="42.1" y2="37.4" stroke-width="1.0"/>
  <line x1="42.1" y1="37.4" x2="42.1" y2="36.1" stroke-width="1.0"/>
  <line x1="42.1" y1="36.1" x2="42.1" y2="34.7" stroke-width="1.0"/>
  <line x1="42.1" y1="34.7" x2="42.0" y2="33.4" stroke-width="1.0"/>
  <line x1="42.0" y1="33.4" x2="42.0" y2="32.0" stroke-width="1.0"/>
  <line x1="51.7" y1="58.5" x2="52.1" y2="55.4" stroke-width="1.9"/>
  <line x1="52.1" y1="55.4" x2="52.5" y2="52.3" stroke-width="1.9"/>
  <line x1="52.5" y1="52.3" x2="52.8" y2="49.2" stroke-width="1.9"/>
  <line x1="52.8" y1="49.2" x2="53.0" y2="46.1" stroke-width="1.9"/>
  <line x1="53.0" y1="46.1" x2="53.2" y2="43.0" stroke-width="1.9"/>
  <line x1="53.2" y1="43.0" x2="52.7" y2="41.1" stroke-width="1.3"/>
  <line x1="52.7" y1="41.1" x2="52.1" y2="39.2" stroke-width="1.3"/>
  <line x1="52.1" y1="39.2" x2="51.5" y2="37.3" stroke-width="1.3"/>
  <line x1="51.5" y1="37.3" x2="50.9" y2="35.4" stroke-width="1.3"/>
  <line x1="50.9" y1="35.4" x2="50.2" y2="33.5" stroke-width="1.3"/>
  <line x1="50.2" y1="33.5" x2="49.4" y2="32.3" stroke-width="1.0"/>
  <line x1="49.4" y1="32.3" x2="48.5" y2="31.1" stroke-width="1.0"/>
  <line x1="48.5" y1="31.1" x2="47.6" y2="29.9" stroke-width="1.0"/>
  <line x1="47.6" y1="29.9" x2="46.6" y2="28.7" stroke-width="1.0"/>
  <line x1="46.6" y1="28.7" x2="45.7" y2="27.5" stroke-width="1.0"/>
  <line x1="50.2" y1="33.5" x2="50.3" y2="32.1" stroke-width="1.0"/>
  <line x1="50.3" y1="32.1" x2="50.5" y2="30.7" stroke-width="1.0"/>
  <line x1="50.5" y1="30.7" x2="50.6" y2="29.2" stroke-width="1.0"/>
  <line x1="50.6" y1="29.2" x2="50.8" y2="27.8" stroke-width="1.0"/>
  <line x1="50.8" y1="27.8" x2="51.1" y2="26.4" stroke-width="1.0"/>
  <line x1="53.2" y1="43.0" x2="54.2" y2="41.2" stroke-width="1.3"/>
  <line x1="54.2" y1="41.2" x2="55.2" y2="39.4" stroke-width="1.3"/>
  <line x1="55.2" y1="39.4" x2="56.3" y2="37.5" stroke-width="1.3"/>
  <line x1="56.3" y1="37.5" x2="57.4" y2="35.7" stroke-width="1.3"/>
  <line x1="57.4" y1="35.7" x2="58.5" y2="34.0" stroke-width="1.3"/>
  <line x1="58.5" y1="34.0" x2="58.6" y2="32.6" stroke-width="1.0"/>
  <line x1="58.6" y1="32.6" x2="58.7" y2="31.3" stroke-width="1.0"/>
  <line x1="58.7" y1="31.3" x2="58.7" y2="30.0" stroke-width="1.0"/>
  <line x1="58.7" y1="30.0" x2="58.7" y2="28.7" stroke-width="1.0"/>
  <line x1="58.7" y1="28.7" x2="58.8" y2="27.3" stroke-width="1.0"/>
  <line x1="58.5" y1="34.0" x2="59.6" y2="32.8" stroke-width="1.0"/>
  <line x1="59.6" y1="32.8" x2="60.6" y2="31.7" stroke-width="1.0"/>
  <line x1="60.6" y1="31.7" x2="61.7" y2="30.6" stroke-width="1.0"/>
  <line x1="61.7" y1="30.6" x2="62.7" y2="29.4" stroke-width="1.0"/>
  <line x1="62.7" y1="29.4" x2="63.8" y2="28.3" stroke-width="1.0"/>
  <line x1="52.0" y1="80.0" x2="52.8" y2="77.7" stroke-width="2.0"/>
  <line x1="52.8" y1="77.7" x2="53.6" y2="75.5" stroke-width="2.0"/>
  <line x1="53.6" y1="75.5" x2="54.4" y2="73.2" stroke-width="2.0"/>
  <line x1="54.4" y1="73.2" x2="55.2" y2="70.9" stroke-width="2.0"/>
  <line x1="55.2" y1="70.9" x2="56.0" y2="68.7" stroke-width="2.0"/>
  <line x1="56.0" y1="68.7" x2="55.3" y2="67.2" stroke-width="1.4"/>
  <line x1="55.3" y1="67.2" x2="54.6" y2="65.8" stroke-width="1.4"/>
  <line x1="54.6" y1="65.8" x2="53.9" y2="64.4" stroke-width="1.4"/>
  <line x1="53.9" y1="64.4" x2="53.2" y2="63.0" stroke-width="1.4"/>
  <line x1="53.2" y1="63.0" x2="52.5" y2="61.6" stroke-width="1.4"/>
  <line x1="52.5" y1="61.6" x2="51.9" y2="60.8" stroke-width="1.0"/>
  <line x1="51.9" y1="60.8" x2="51.2" y2="60.0" stroke-width="1.0"/>
  <line x1="51.2" y1="60.0" x2="50.6" y2="59.3" stroke-width="1.0"/>
  <line x1="50.6" y1="59.3" x2="49.9" y2="58.5" stroke-width="1.0"/>
  <line x1="49.9" y1="58.5" x2="49.3" y2="57.7" stroke-width="1.0"/>
  <line x1="52.5" y1="61.6" x2="52.5" y2="60.5" stroke-width="1.0"/>
  <line x1="52.5" y1="60.5" x2="52.4" y2="59.4" stroke-width="1.0"/>
  <line x1="52.4" y1="59.4" x2="52.4" y2="58.2" stroke-width="1.0"/>
  <line x1="52.4" y1="58.2" x2="52.4" y2="57.1" stroke-width="1.0"/>
  <line x1="52.4" y1="57.1" x2="52.3" y2="56.0" stroke-width="1.0"/>
  <line x1="56.0" y1="68.7" x2="56.5" y2="67.1" stroke-width="1.4"/>
  <line x1="56.5" y1="67.1" x2="57.1" y2="65.6" stroke-width="1.4"/>
  <line x1="57.1" y1="65.6" x2="57.7" y2="64.0" stroke-width="1.4"/>
  <line x1="57.7" y1="64.0" x2="58.4" y2="62.5" stroke-width="1.4"/>
  <line x1="58.4" y1="62.5" x2="59.0" y2="61.0" stroke-width="1.4"/>
  <line x1="59.0" y1="61.0" x2="58.9" y2="59.8" stroke-width="1.0"/>
  <line x1="58.9" y1="59.8" x2="58.7" y2="58.6" stroke-width="1.0"/>
  <line x1="58.7" y1="58.6" x2="58.6" y2="57.5" stroke-width="1.0"/>
  <line x1="58.6" y1="57.5" x2="58.4" y2="56.3" stroke-width="1.0"/>
  <line x1="58.4" y1="56.3" x2="58.2" y2="55.2" stroke-width="1.0"/>
  <line x1="59.0" y1="61.0" x2="59.7" y2="60.0" stroke-width="1.0"/>
  <line x1="59.7" y1="60.0" x2="60.3" y2="59.1" stroke-width="1.0"/>
  <line x1="60.3" y1="59.1" x2="61.1" y2="58.3" stroke-width="1.0"/>
  <line x1="61.1" y1="58.3" x2="61.8" y2="57.5" stroke-width="1.0"/>
  <line x1="61.8" y1="57.5" x2="62.6" y2="56.7" stroke-width="1.0"/>
  <line x1="56.0" y1="68.7" x2="57.4" y2="67.9" stroke-width="1.4"/>
  <line x1="57.4" y1="67.9" x2="58.9" y2="67.2" stroke-width="1.4"/>
  <line x1="58.9" y1="67.2" x2="60.5" y2="66.6" stroke-width="1.4"/>
  <line x1="60.5" y1="66.6" x2="62.0" y2="66.1" stroke-width="1.4"/>
  <line x1="62.0" y1="66.1" x2="63.6" y2="65.6" stroke-width="1.4"/>
  <line x1="63.6" y1="65.6" x2="64.3" y2="64.7" stroke-width="1.0"/>
  <line x1="64.3" y1="64.7" x2="65.1" y2="63.8" stroke-width="1.0"/>
  <line x1="65.1" y1="63.8" x2="65.9" y2="62.9" stroke-width="1.0"/>
  <line x1="65.9" y1="62.9" x2="66.7" y2="62.1" stroke-width="1.0"/>
  <line x1="66.7" y1="62.1" x2="67.5" y2="61.3" stroke-width="1.0"/>
  <line x1="63.6" y1="65.6" x2="64.8" y2="65.3" stroke-width="1.0"/>
  <line x1="64.8" y1="65.3" x2="66.0" y2="64.9" stroke-width="1.0"/>
  <line x1="66.0" y1="64.9" x2="67.2" y2="64.6" stroke-width="1.0"/>
  <line x1="67.2" y1="64.6" x2="68.4" y2="64.3" stroke-width="1.0"/>
  <line x1="68.4" y1="64.3" x2="69.6" y2="63.9" stroke-width="1.0"/>
</g>
<g stroke="url(#ag)" stroke-width="1.3" fill="#0a1526">
  <circle cx="33.3" cy="43.1" r="1.4"/>
  <circle cx="35.2" cy="39.8" r="1.4"/>
  <circle cx="38.7" cy="43.3" r="1.2"/>
  <circle cx="38.6" cy="33.0" r="1.4"/>
  <circle cx="42.0" cy="32.0" r="1.4"/>
  <circle cx="42.1" cy="38.8" r="1.2"/>
  <circle cx="45.4" cy="47.6" r="1.3"/>
  <circle cx="45.7" cy="27.5" r="1.4"/>
  <circle cx="51.1" cy="26.4" r="1.4"/>
  <circle cx="50.2" cy="33.5" r="1.2"/>
  <circle cx="58.8" cy="27.3" r="1.4"/>
  <circle cx="63.8" cy="28.3" r="1.4"/>
  <circle cx="58.5" cy="34.0" r="1.2"/>
  <circle cx="53.2" cy="43.0" r="1.3"/>
  <circle cx="51.7" cy="58.5" r="1.8"/>
  <circle cx="49.3" cy="57.7" r="1.4"/>
  <circle cx="52.3" cy="56.0" r="1.4"/>
  <circle cx="52.5" cy="61.6" r="1.2"/>
  <circle cx="58.2" cy="55.2" r="1.4"/>
  <circle cx="62.6" cy="56.7" r="1.4"/>
  <circle cx="59.0" cy="61.0" r="1.2"/>
  <circle cx="67.5" cy="61.3" r="1.4"/>
  <circle cx="69.6" cy="63.9" r="1.4"/>
  <circle cx="63.6" cy="65.6" r="1.2"/>
  <circle cx="56.0" cy="68.7" r="1.4"/>
</g>
<circle cx="50.0" cy="14.0" r="4" fill="#25e6ff"/>
</svg>
